# xmcd
#
# Track frame offsets:
#	150
#	20565
#	37220
#	54127
#	71402
#	84727
#	99895
#	116890
#	132215
#	150730
#	170065
#	186022
#	198470
#	229905
#
# Disc length: 3672 seconds
#
# Revision: 2
# Processed by: cddbd v1.5.2PL0 Copyright (c) Steve Scherf et al.
# Submitted via: audiograbber 1.83.01
#
DISCID=be0e560e
DTITLE=Vygors, The - The Vygors
DYEAR=2000
DGENRE=Pop
TTITLE0=Face reality
TTITLE1=Summer rain
TTITLE2=Turn off the sun
TTITLE3=Repentance
TTITLE4=A taste of your loving
TTITLE5=Carried away
TTITLE6=No tears tonight
TTITLE7=Casanova lover
TTITLE8=The look in your eyes - It's gone
TTITLE9=I need you
TTITLE10=I don't wanna be alone (just too bad your name's unknown)
TTITLE11=Truth about love
TTITLE12=Your touch is mine
TTITLE13=CD-Extra (Truth About Love - Video)
EXTD=
EXTT0=
EXTT1=
EXTT2=
EXTT3=
EXTT4=
EXTT5=
EXTT6=
EXTT7=
EXTT8=
EXTT9=
EXTT10=
EXTT11=
EXTT12=
EXTT13=
PLAYORDER=
